<svg width="120" height="30" viewBox="0 0 293 78" fill="none" xmlns="http://www.w3.org/2000/svg">
<path fill-rule="evenodd" clip-rule="evenodd" d="M47.512 12.2702C46.7782 8.97089 44.7207 1.73867 40.5522 0.277093C35.113 -1.63001 15.7304 6.7479 13.5444 11.9178C11.7821 16.0855 13.4083 19.7214 15.03 23.3472C15.2342 23.8037 15.4383 24.2601 15.6356 24.7174C15.5385 25.2796 15.4649 25.8498 15.4157 26.427C12.1496 28.4838 -0.8341 36.8809 0.0423433 39.8594C0.504869 41.4312 7.71431 38.707 15.3429 35.3181V73.1263C15.3429 75.8179 17.5249 77.9999 20.2165 77.9999H50.4718C53.1634 77.9999 55.3454 75.8179 55.3454 73.1263V28.1458C55.3454 24.4125 54.3225 20.918 52.5417 17.9274C60.3071 14.138 67.4259 10.2095 66.9801 8.73173C66.1596 6.01189 52.8023 11.7078 48.8993 13.4383C48.455 13.0286 47.9921 12.6388 47.512 12.2702ZM28.4583 29.1381C31.6078 27.5864 33.7063 26.5099 33.7063 26.5099C33.7063 26.5099 35.9483 25.5544 39.2687 24.0791C41.0845 25.3271 42.2752 27.4189 42.2752 29.7888V39.8377C42.2752 41.2438 41.1354 42.3836 39.7293 42.3836H30.974C29.568 42.3836 28.4281 41.2438 28.4281 39.8377V29.7888C28.4281 29.5694 28.4384 29.3523 28.4583 29.1381ZM32.4281 54.5945C30.219 54.5945 28.4281 56.3854 28.4281 58.5945V77.9937H42.2752V58.5945C42.2752 56.3854 40.4844 54.5945 38.2752 54.5945H32.4281Z" fill="url(#paint0_linear)"/>
<path d="M100.336 27.5703V20.8438C100.336 19.9219 100.156 19.0547 99.7969 18.2422C99.4531 17.4141 98.9766 16.6953 98.3672 16.0859C97.7578 15.4766 97.0391 15 96.2109 14.6562C95.3984 14.2969 94.5312 14.1172 93.6094 14.1172C92.6875 14.1172 91.8125 14.2969 90.9844 14.6562C90.1719 15 89.4609 15.4766 88.8516 16.0859C88.2422 16.6953 87.7578 17.4141 87.3984 18.2422C87.0547 19.0547 86.8828 19.9219 86.8828 20.8438V27.5703H100.336ZM107.062 41H100.336V34.2734H86.8828V41H80.1797V20.8438C80.1797 18.9844 80.5312 17.2422 81.2344 15.6172C81.9375 13.9766 82.8906 12.5469 84.0938 11.3281C85.3125 10.1094 86.7344 9.14844 88.3594 8.44531C90 7.74219 91.75 7.39062 93.6094 7.39062C95.4688 7.39062 97.2109 7.74219 98.8359 8.44531C100.477 9.14844 101.906 10.1094 103.125 11.3281C104.344 12.5469 105.305 13.9766 106.008 15.6172C106.711 17.2422 107.062 18.9844 107.062 20.8438V41ZM119.625 41H112.898V7.39062H119.625V20.8438H133.055V7.39062H139.781V41H133.055V27.5703H119.625V41ZM179.391 41H172.688V17C172.688 16.5312 172.594 16.0938 172.406 15.6875C172.234 15.2813 171.992 14.9297 171.68 14.6328C171.383 14.3203 171.031 14.0781 170.625 13.9062C170.219 13.7344 169.781 13.6484 169.312 13.6484C168.844 13.6484 168.406 13.7344 168 13.9062C167.594 14.0781 167.234 14.3203 166.922 14.6328C166.625 14.9297 166.391 15.2813 166.219 15.6875C166.047 16.0938 165.961 16.5312 165.961 17V41H159.234V17C159.234 16.5312 159.148 16.0938 158.977 15.6875C158.805 15.2813 158.562 14.9297 158.25 14.6328C157.953 14.3203 157.602 14.0781 157.195 13.9062C156.789 13.7344 156.352 13.6484 155.883 13.6484C155.414 13.6484 154.977 13.7344 154.57 13.9062C154.164 14.0781 153.805 14.3203 153.492 14.6328C153.195 14.9297 152.961 15.2813 152.789 15.6875C152.617 16.0938 152.531 16.5312 152.531 17V41H145.805V17C145.805 15.6094 146.062 14.3047 146.578 13.0859C147.109 11.8516 147.828 10.7813 148.734 9.875C149.656 8.95313 150.727 8.23438 151.945 7.71875C153.18 7.1875 154.492 6.92188 155.883 6.92188C157.133 6.92188 158.336 7.14844 159.492 7.60156C160.648 8.03906 161.688 8.67969 162.609 9.52344C163.531 8.67969 164.562 8.03906 165.703 7.60156C166.859 7.14844 168.062 6.92188 169.312 6.92188C170.703 6.92188 172.008 7.1875 173.227 7.71875C174.461 8.23438 175.531 8.95313 176.438 9.875C177.359 10.7813 178.078 11.8516 178.594 13.0859C179.125 14.3047 179.391 15.6094 179.391 17V41ZM208.453 41H185.414V7.39062H208.453V14.1172H192.141V20.8438H203.18V27.5703H192.141V34.2734H208.453V41ZM240.094 24.1953C240.094 25.7422 239.891 27.2344 239.484 28.6719C239.094 30.0938 238.531 31.4297 237.797 32.6797C237.062 33.9141 236.188 35.0469 235.172 36.0781C234.156 37.0938 233.023 37.9688 231.773 38.7031C230.523 39.4375 229.18 40.0078 227.742 40.4141C226.32 40.8047 224.836 41 223.289 41H213.164V7.39062H223.289C224.836 7.39062 226.32 7.59375 227.742 8C229.18 8.39063 230.523 8.95313 231.773 9.6875C233.023 10.4219 234.156 11.3047 235.172 12.3359C236.188 13.3516 237.062 14.4844 237.797 15.7344C238.531 16.9688 239.094 18.3047 239.484 19.7422C239.891 21.1641 240.094 22.6484 240.094 24.1953ZM233.367 24.1953C233.367 22.8047 233.102 21.5 232.57 20.2812C232.055 19.0625 231.336 18 230.414 17.0938C229.508 16.1719 228.438 15.4453 227.203 14.9141C225.984 14.3828 224.68 14.1172 223.289 14.1172H219.938V34.2734H223.289C224.68 34.2734 225.984 34.0156 227.203 33.5C228.438 32.9688 229.508 32.25 230.414 31.3438C231.336 30.4219 232.055 29.3516 232.57 28.1328C233.102 26.8984 233.367 25.5859 233.367 24.1953ZM251.25 11.3281C251.25 12.0156 251.18 12.7578 251.039 13.5547C250.914 14.3359 250.703 15.1172 250.406 15.8984C250.125 16.6641 249.75 17.3984 249.281 18.1016C248.812 18.8047 248.25 19.3984 247.594 19.8828L245.062 18.1016C245.484 17.6016 245.805 17.125 246.023 16.6719C246.242 16.2188 246.414 15.7656 246.539 15.3125C246.07 15.2344 245.633 15.0781 245.227 14.8438C244.82 14.6094 244.469 14.3203 244.172 13.9766C243.891 13.6172 243.664 13.2109 243.492 12.7578C243.32 12.3047 243.234 11.8281 243.234 11.3281C243.234 10.7969 243.336 10.2891 243.539 9.80469C243.758 9.32031 244.047 8.89844 244.406 8.53906C244.781 8.16406 245.203 7.875 245.672 7.67188C246.156 7.45313 246.672 7.34375 247.219 7.34375C247.781 7.34375 248.305 7.45313 248.789 7.67188C249.289 7.875 249.719 8.16406 250.078 8.53906C250.438 8.89844 250.719 9.32031 250.922 9.80469C251.141 10.2891 251.25 10.7969 251.25 11.3281ZM254.367 17.4688C254.367 16.0781 254.633 14.7734 255.164 13.5547C255.695 12.3359 256.414 11.2734 257.32 10.3672C258.242 9.44531 259.312 8.71875 260.531 8.1875C261.75 7.65625 263.055 7.39062 264.445 7.39062H279.867V14.1172H264.445C263.977 14.1172 263.539 14.2031 263.133 14.375C262.727 14.5469 262.367 14.7891 262.055 15.1016C261.758 15.3984 261.523 15.75 261.352 16.1562C261.18 16.5625 261.094 17 261.094 17.4688C261.094 17.9375 261.18 18.3828 261.352 18.8047C261.523 19.2109 261.758 19.5703 262.055 19.8828C262.367 20.1797 262.727 20.4141 263.133 20.5859C263.539 20.7578 263.977 20.8438 264.445 20.8438H271.172C272.562 20.8438 273.867 21.1094 275.086 21.6406C276.32 22.1562 277.391 22.875 278.297 23.7969C279.219 24.7031 279.938 25.7734 280.453 27.0078C280.984 28.2266 281.25 29.5312 281.25 30.9219C281.25 32.3125 280.984 33.6172 280.453 34.8359C279.938 36.0547 279.219 37.125 278.297 38.0469C277.391 38.9531 276.32 39.6719 275.086 40.2031C273.867 40.7344 272.562 41 271.172 41H256.242V34.2734H271.172C271.641 34.2734 272.078 34.1875 272.484 34.0156C272.891 33.8438 273.242 33.6094 273.539 33.3125C273.852 33 274.094 32.6406 274.266 32.2344C274.438 31.8281 274.523 31.3906 274.523 30.9219C274.523 30.4531 274.438 30.0156 274.266 29.6094C274.094 29.2031 273.852 28.8516 273.539 28.5547C273.242 28.2422 272.891 28 272.484 27.8281C272.078 27.6562 271.641 27.5703 271.172 27.5703H264.445C263.055 27.5703 261.75 27.3047 260.531 26.7734C259.312 26.2422 258.242 25.5234 257.32 24.6172C256.414 23.6953 255.695 22.625 255.164 21.4062C254.633 20.1719 254.367 18.8594 254.367 17.4688Z" fill="#146299"/>
<path d="M90.7646 66.4209C90.0485 67.0368 89.2464 67.5094 88.3584 67.8389C87.4704 68.1683 86.5501 68.333 85.5977 68.333C84.8672 68.333 84.1618 68.2363 83.4814 68.043C82.8083 67.8568 82.1745 67.5918 81.5801 67.248C80.9928 66.8971 80.4557 66.4782 79.9688 65.9912C79.4818 65.5042 79.0628 64.9671 78.7119 64.3799C78.3682 63.7855 78.0996 63.1517 77.9062 62.4785C77.7201 61.7982 77.627 61.0928 77.627 60.3623C77.627 59.6318 77.7201 58.9264 77.9062 58.2461C78.0996 57.5658 78.3682 56.932 78.7119 56.3447C79.0628 55.7503 79.4818 55.2096 79.9688 54.7227C80.4557 54.2357 80.9928 53.8203 81.5801 53.4766C82.1745 53.1257 82.8083 52.8571 83.4814 52.6709C84.1618 52.4775 84.8672 52.3809 85.5977 52.3809C86.5501 52.3809 87.4704 52.5456 88.3584 52.875C89.2464 53.1973 90.0485 53.6699 90.7646 54.293L89.1318 56.9785C88.6807 56.4915 88.1471 56.1191 87.5312 55.8613C86.9154 55.5964 86.2708 55.4639 85.5977 55.4639C84.9173 55.4639 84.2799 55.5928 83.6855 55.8506C83.0911 56.1084 82.5719 56.4593 82.1279 56.9033C81.6839 57.3402 81.333 57.8594 81.0752 58.4609C80.8174 59.0553 80.6885 59.6891 80.6885 60.3623C80.6885 61.0355 80.8174 61.6693 81.0752 62.2637C81.333 62.8509 81.6839 63.3665 82.1279 63.8105C82.5719 64.2546 83.0911 64.6055 83.6855 64.8633C84.2799 65.1211 84.9173 65.25 85.5977 65.25C86.2708 65.25 86.9154 65.1211 87.5312 64.8633C88.1471 64.5983 88.6807 64.2223 89.1318 63.7354L90.7646 66.4209ZM103.344 68H92.5586V52.5957H95.6416V64.917H103.344V68ZM119.511 60.3623C119.511 61.0928 119.414 61.7982 119.221 62.4785C119.035 63.1517 118.77 63.7855 118.426 64.3799C118.082 64.9671 117.667 65.5042 117.18 65.9912C116.693 66.4782 116.156 66.8971 115.568 67.248C114.981 67.5918 114.347 67.8568 113.667 68.043C112.987 68.2363 112.281 68.333 111.551 68.333C110.82 68.333 110.115 68.2363 109.435 68.043C108.761 67.8568 108.128 67.5918 107.533 67.248C106.946 66.8971 106.409 66.4782 105.922 65.9912C105.435 65.5042 105.016 64.9671 104.665 64.3799C104.321 63.7855 104.053 63.1517 103.859 62.4785C103.673 61.7982 103.58 61.0928 103.58 60.3623C103.58 59.6318 103.673 58.9264 103.859 58.2461C104.053 57.5658 104.321 56.932 104.665 56.3447C105.016 55.7575 105.435 55.2204 105.922 54.7334C106.409 54.2464 106.946 53.8311 107.533 53.4873C108.128 53.1436 108.761 52.8786 109.435 52.6924C110.115 52.499 110.82 52.4023 111.551 52.4023C112.281 52.4023 112.987 52.499 113.667 52.6924C114.347 52.8786 114.981 53.1436 115.568 53.4873C116.156 53.8311 116.693 54.2464 117.18 54.7334C117.667 55.2204 118.082 55.7575 118.426 56.3447C118.77 56.932 119.035 57.5658 119.221 58.2461C119.414 58.9264 119.511 59.6318 119.511 60.3623ZM116.449 60.3623C116.449 59.6891 116.32 59.0553 116.062 58.4609C115.805 57.8594 115.454 57.3402 115.01 56.9033C114.573 56.4593 114.054 56.1084 113.452 55.8506C112.858 55.5928 112.224 55.4639 111.551 55.4639C110.87 55.4639 110.233 55.5928 109.639 55.8506C109.044 56.1084 108.525 56.4593 108.081 56.9033C107.637 57.3402 107.286 57.8594 107.028 58.4609C106.771 59.0553 106.642 59.6891 106.642 60.3623C106.642 61.0355 106.771 61.6693 107.028 62.2637C107.286 62.8509 107.637 63.3665 108.081 63.8105C108.525 64.2546 109.044 64.6055 109.639 64.8633C110.233 65.1211 110.87 65.25 111.551 65.25C112.224 65.25 112.858 65.1211 113.452 64.8633C114.054 64.6055 114.573 64.2546 115.01 63.8105C115.454 63.3665 115.805 62.8509 116.062 62.2637C116.32 61.6693 116.449 61.0355 116.449 60.3623ZM127.514 68H124.441V55.6787H119.812V52.5957H132.133V55.6787H127.514V68ZM136.849 68H133.766V52.5957H136.849V58.7617H143.004V52.5957H146.087V68H143.004V61.8447H136.849V68ZM152.038 68H148.955V52.5957H152.038V68ZM167.228 68H163.93L157.989 57.8594V68H154.906V52.5957H158.204L164.145 62.7471V52.5957H167.228V68ZM182.353 66.4424C181.636 67.0511 180.838 67.5202 179.957 67.8496C179.076 68.1719 178.16 68.333 177.207 68.333C176.477 68.333 175.771 68.2363 175.091 68.043C174.418 67.8568 173.787 67.5918 173.2 67.248C172.613 66.8971 172.076 66.4818 171.589 66.002C171.102 65.515 170.687 64.9779 170.343 64.3906C169.999 63.7962 169.73 63.1589 169.537 62.4785C169.351 61.7982 169.258 61.0928 169.258 60.3623C169.258 59.6318 169.351 58.93 169.537 58.2568C169.73 57.5837 169.999 56.9535 170.343 56.3662C170.687 55.7718 171.102 55.2347 171.589 54.7549C172.076 54.2679 172.613 53.8525 173.2 53.5088C173.787 53.165 174.418 52.9001 175.091 52.7139C175.771 52.5205 176.477 52.4238 177.207 52.4238C178.16 52.4238 179.076 52.5885 179.957 52.918C180.838 53.2402 181.636 53.7057 182.353 54.3145L180.741 57C180.276 56.5273 179.739 56.1585 179.13 55.8936C178.521 55.6214 177.88 55.4854 177.207 55.4854C176.534 55.4854 175.9 55.6143 175.306 55.8721C174.718 56.1299 174.203 56.4808 173.759 56.9248C173.315 57.3617 172.964 57.8773 172.706 58.4717C172.448 59.0589 172.319 59.6891 172.319 60.3623C172.319 61.0426 172.448 61.68 172.706 62.2744C172.964 62.8688 173.315 63.388 173.759 63.832C174.203 64.276 174.718 64.627 175.306 64.8848C175.9 65.1426 176.534 65.2715 177.207 65.2715C177.594 65.2715 177.97 65.2249 178.335 65.1318C178.7 65.0387 179.048 64.9098 179.377 64.7451V60.3623H182.353V66.4424ZM193.976 55.6787V61.8447H197.059C197.481 61.8447 197.879 61.766 198.251 61.6084C198.623 61.4437 198.949 61.2217 199.229 60.9424C199.508 60.6631 199.726 60.3372 199.884 59.9648C200.049 59.5853 200.131 59.1842 200.131 58.7617C200.131 58.3392 200.049 57.9417 199.884 57.5693C199.726 57.1898 199.508 56.8604 199.229 56.5811C198.949 56.3018 198.623 56.0833 198.251 55.9258C197.879 55.7611 197.481 55.6787 197.059 55.6787H193.976ZM193.976 68H190.893V52.5957H197.059C197.624 52.5957 198.169 52.6709 198.691 52.8213C199.214 52.9645 199.701 53.1722 200.152 53.4443C200.611 53.7093 201.026 54.0316 201.398 54.4111C201.778 54.7835 202.1 55.1989 202.365 55.6572C202.637 56.1156 202.845 56.6061 202.988 57.1289C203.139 57.6517 203.214 58.196 203.214 58.7617C203.214 59.6068 203.053 60.4053 202.73 61.1572C202.408 61.902 201.968 62.5537 201.409 63.1123C200.851 63.6709 200.195 64.1113 199.443 64.4336C198.699 64.7559 197.904 64.917 197.059 64.917H193.976V68ZM216.695 52.5957L211.636 68H208.553L203.515 52.5957H207.017L210.089 62.876L213.172 52.5957H216.695ZM224.645 68H221.572V55.6787H216.942V52.5957H229.264V55.6787H224.645V68ZM232.884 66.9043C232.884 67.1621 232.837 67.4056 232.744 67.6348C232.651 67.8568 232.522 68.0501 232.357 68.2148C232.193 68.3796 231.999 68.5085 231.777 68.6016C231.555 68.7018 231.315 68.752 231.058 68.752C230.807 68.752 230.567 68.7018 230.338 68.6016C230.116 68.5085 229.919 68.3796 229.747 68.2148C229.582 68.0501 229.45 67.8568 229.35 67.6348C229.257 67.4056 229.21 67.1621 229.21 66.9043C229.21 66.6536 229.257 66.4173 229.35 66.1953C229.45 65.9733 229.582 65.7799 229.747 65.6152C229.919 65.4505 230.116 65.3216 230.338 65.2285C230.567 65.1283 230.807 65.0781 231.058 65.0781C231.315 65.0781 231.555 65.1283 231.777 65.2285C231.999 65.3216 232.193 65.4505 232.357 65.6152C232.522 65.7799 232.651 65.9733 232.744 66.1953C232.837 66.4173 232.884 66.6536 232.884 66.9043ZM252.338 68H241.553V52.5957H244.636V64.917H252.338V68ZM258.289 68H255.217V55.6787H250.587V52.5957H262.908V55.6787H258.289V68ZM276.884 60.2979C276.884 61.0068 276.791 61.6908 276.604 62.3496C276.425 63.0013 276.168 63.6136 275.831 64.1865C275.494 64.7523 275.093 65.2715 274.628 65.7441C274.162 66.2096 273.643 66.6107 273.07 66.9473C272.497 67.2839 271.882 67.5452 271.223 67.7314C270.571 67.9105 269.891 68 269.182 68H264.541V52.5957H269.182C269.891 52.5957 270.571 52.6888 271.223 52.875C271.882 53.054 272.497 53.3118 273.07 53.6484C273.643 53.985 274.162 54.3896 274.628 54.8623C275.093 55.3278 275.494 55.847 275.831 56.4199C276.168 56.9857 276.425 57.598 276.604 58.2568C276.791 58.9085 276.884 59.5889 276.884 60.2979ZM273.801 60.2979C273.801 59.6605 273.679 59.0625 273.436 58.5039C273.199 57.9453 272.87 57.4583 272.447 57.043C272.032 56.6204 271.541 56.2874 270.976 56.0439C270.417 55.8005 269.819 55.6787 269.182 55.6787H267.646V64.917H269.182C269.819 64.917 270.417 64.7988 270.976 64.5625C271.541 64.319 272.032 63.9896 272.447 63.5742C272.87 63.1517 273.199 62.6611 273.436 62.1025C273.679 61.5368 273.801 60.9352 273.801 60.2979ZM281.89 66.9043C281.89 67.1621 281.843 67.4056 281.75 67.6348C281.657 67.8568 281.528 68.0501 281.363 68.2148C281.199 68.3796 281.005 68.5085 280.783 68.6016C280.561 68.7018 280.321 68.752 280.063 68.752C279.813 68.752 279.573 68.7018 279.344 68.6016C279.122 68.5085 278.925 68.3796 278.753 68.2148C278.588 68.0501 278.456 67.8568 278.355 67.6348C278.262 67.4056 278.216 67.1621 278.216 66.9043C278.216 66.6536 278.262 66.4173 278.355 66.1953C278.456 65.9733 278.588 65.7799 278.753 65.6152C278.925 65.4505 279.122 65.3216 279.344 65.2285C279.573 65.1283 279.813 65.0781 280.063 65.0781C280.321 65.0781 280.561 65.1283 280.783 65.2285C281.005 65.3216 281.199 65.4505 281.363 65.6152C281.528 65.7799 281.657 65.9733 281.75 66.1953C281.843 66.4173 281.89 66.6536 281.89 66.9043Z" fill="#79C2BD"/>
<defs>
<linearGradient id="paint0_linear" x1="23.9794" y1="5.24465" x2="56.1494" y2="77.1895" gradientUnits="userSpaceOnUse">
<stop offset="0.397433" stop-color="#146199"/>
<stop offset="1" stop-color="#1DB688" stop-opacity="0.34"/>
</linearGradient>
</defs>
</svg>
