<svg width="351" height="394" viewBox="0 0 351 394" fill="none" xmlns="http://www.w3.org/2000/svg">
<path fill-rule="evenodd" clip-rule="evenodd" d="M248.887 62.8021C245.25 46.6712 234.492 8.90827 212.239 1.39629C183.772 -8.21376 82.3289 34.0032 70.8877 60.0546C61.6642 81.0563 70.1753 99.3777 78.6629 117.648C79.8783 120.265 81.0932 122.88 82.2555 125.502C81.7768 127.948 81.3833 130.424 81.0782 132.928C64.6685 142.86 -4.40178 185.727 0.221613 200.855C2.64242 208.775 40.3768 195.047 80.3041 177.97V378.048C80.3041 386.333 87.0199 393.048 95.3041 393.048H274.666C282.951 393.048 289.666 386.333 289.666 378.048V145.723C289.666 125.563 283.967 106.733 274.093 90.7584C315.081 71.5344 352.906 51.5013 350.556 43.9999C346.206 30.1174 274.536 59.7452 255.159 68.0444C253.138 66.2176 251.046 64.4686 248.887 62.8021ZM149.093 146.758C165.493 138.977 176.41 133.586 176.41 133.586C176.41 133.586 188.05 128.81 205.312 121.426C214.937 127.94 221.263 138.959 221.263 151.456V200.746C221.263 207.831 215.52 213.575 208.434 213.575H161.62C154.535 213.575 148.791 207.831 148.791 200.746V151.456C148.791 149.864 148.894 148.296 149.093 146.758ZM163.791 275.107C155.507 275.107 148.791 281.823 148.791 290.107V393.017H221.263V290.107C221.263 281.823 214.548 275.107 206.263 275.107H163.791Z" fill="url(#paint0_linear)"/>
<defs>
<linearGradient id="paint0_linear" x1="125.502" y1="26.4282" x2="283.502" y2="393.428" gradientUnits="userSpaceOnUse">
<stop offset="0.397433" stop-color="#146199"/>
<stop offset="1" stop-color="#1DB688" stop-opacity="0.34"/>
</linearGradient>
</defs>
</svg>
